<?xml version="1.0" encoding="utf-8"?>
<!-- Generator: Adobe Illustrator 25.0.1, SVG Export Plug-In . SVG Version: 6.00 Build 0)  -->
<svg version="1.1" id="Capa_1" xmlns="http://www.w3.org/2000/svg" xmlns:xlink="http://www.w3.org/1999/xlink" x="0px" y="0px"
	 viewBox="0 0 25 25" style="enable-background:new 0 0 25 25;" xml:space="preserve">
<style type="text/css">
	.st0{fill:#FFFFFF;}
	.st1{fill:none;stroke:#CCCBCA;stroke-width:0.6083;stroke-miterlimit:10;}
	.st2{fill:none;stroke:#CCCBCA;stroke-width:1.6324;stroke-linecap:round;stroke-miterlimit:10;}
</style>
<g>
	<g>
		<path class="st0" d="M27.4,21.5c0,1.6-1.3,2.9-2.9,2.9h-18c-1.6,0-2.9-1.3-2.9-2.9v-18c0-1.6,1.3-2.9,2.9-2.9h18
			c1.6,0,2.9,1.3,2.9,2.9V21.5z"/>
		<path class="st1" d="M27.4,21.5c0,1.6-1.3,2.9-2.9,2.9h-18c-1.6,0-2.9-1.3-2.9-2.9v-18c0-1.6,1.3-2.9,2.9-2.9h18
			c1.6,0,2.9,1.3,2.9,2.9V21.5z"/>
	</g>
	<polyline class="st2" points="18.4,6.1 12.2,12.3 18.7,18.9 	"/>
</g>
</svg>
