<?xml version="1.0" encoding="utf-8"?>
<!-- Generator: Adobe Illustrator 25.0.1, SVG Export Plug-In . SVG Version: 6.00 Build 0)  -->
<svg version="1.1" id="Capa_1" xmlns="http://www.w3.org/2000/svg" xmlns:xlink="http://www.w3.org/1999/xlink" x="0px" y="0px"
	 viewBox="0 0 16 16" style="enable-background:new 0 0 16 16;" xml:space="preserve">
<style type="text/css">
	.st0{fill:#FFFFFF;}
</style>
<path class="st0" d="M13.3,6.6h-1.7c-0.1-0.3-0.2-0.6-0.4-0.9l1.1-1.1c0.3-0.3,0.3-0.7,0-0.9l-0.5-0.5c-0.3-0.3-0.7-0.3-0.9,0
	L9.8,4.3C9.5,4.1,9.2,4,8.8,3.9V2.4c0-0.4-0.3-0.7-0.7-0.7H7.5c-0.4,0-0.7,0.3-0.7,0.7v1.5C6.4,4,6.1,4.2,5.8,4.4L4.8,3.4
	c-0.3-0.3-0.7-0.3-0.9,0L3.4,3.9c-0.3,0.3-0.3,0.7,0,0.9l1,1C4.2,6.1,4,6.5,3.9,6.9H2.7C2.3,6.9,2,7.2,2,7.6v0.7
	c0,0.4,0.3,0.7,0.7,0.7H4c0.1,0.4,0.3,0.8,0.5,1.1L3.6,11c-0.3,0.3-0.3,0.7,0,0.9l0.5,0.5c0.3,0.3,0.7,0.3,0.9,0l1-1
	c0.3,0.2,0.7,0.3,1.1,0.4v1.4c0,0.4,0.3,0.7,0.7,0.7h0.7c0.4,0,0.7-0.3,0.7-0.7v-1.6c0.3-0.1,0.7-0.3,0.9-0.5l1.1,1.1
	c0.3,0.3,0.7,0.3,0.9,0l0.5-0.5c0.3-0.3,0.3-0.7,0-0.9l-1.2-1.2c0.1-0.3,0.3-0.6,0.3-0.9h1.6c0.4,0,0.7-0.3,0.7-0.7V7.3
	C14,6.9,13.7,6.6,13.3,6.6z M7.8,9.4c-0.9,0-1.7-0.7-1.7-1.7c0-0.9,0.7-1.7,1.7-1.7c0.9,0,1.7,0.7,1.7,1.7C9.5,8.7,8.7,9.4,7.8,9.4z
	"/>
</svg>
