<?xml version="1.0" encoding="utf-8"?>
<!-- Generator: Adobe Illustrator 25.0.1, SVG Export Plug-In . SVG Version: 6.00 Build 0)  -->
<svg version="1.1" id="Capa_1" xmlns="http://www.w3.org/2000/svg" xmlns:xlink="http://www.w3.org/1999/xlink" x="0px" y="0px"
	 viewBox="0 0 80 80" style="enable-background:new 0 0 80 80;" xml:space="preserve">
<style type="text/css">
	.st0{fill:#CCCCCC;}
</style>
<g>
	<path class="st0" d="M15.8,7H7C5.8,7,4.8,8,4.8,9.2v61.6C4.8,72,5.8,73,7,73h8.8c1.2,0,2.2-1,2.2-2.2V9.2C18,8,17,7,15.8,7z
		 M13.6,68.6H9.2v-4.4h4.4V68.6z M13.6,15.8H9.2v-4.4h4.4V15.8z"/>
	<path class="st0" d="M55.4,33.4H51c-1.2,0-2.2,1-2.2,2.2v35.2c0,1.2,1,2.2,2.2,2.2h4.4c1.2,0,2.2-1,2.2-2.2V35.6
		C57.6,34.4,56.6,33.4,55.4,33.4z"/>
	<path class="st0" d="M73,29h-8.8C63,29,62,30,62,31.2v39.6c0,1.2,1,2.2,2.2,2.2H73c1.2,0,2.2-1,2.2-2.2V31.2C75.2,30,74.2,29,73,29
		z M70.8,68.6h-4.4v-4.4h4.4V68.6z M70.8,37.8h-4.4v-4.4h4.4V37.8z"/>
	<path class="st0" d="M42.2,20.2H24.6c-1.2,0-2.2,1-2.2,2.2v48.4c0,1.2,1,2.2,2.2,2.2h17.6c1.2,0,2.2-1,2.2-2.2V22.4
		C44.4,21.2,43.4,20.2,42.2,20.2z M40,64.2H26.8v-4.4H40V64.2z M40,33.4H26.8V29H40V33.4z"/>
</g>
</svg>
