<?xml version="1.0" encoding="utf-8"?>
<!-- Generator: Adobe Illustrator 25.0.1, SVG Export Plug-In . SVG Version: 6.00 Build 0)  -->
<svg version="1.1" id="Capa_1" xmlns="http://www.w3.org/2000/svg" xmlns:xlink="http://www.w3.org/1999/xlink" x="0px" y="0px"
	 viewBox="0 0 80 80" style="enable-background:new 0 0 80 80;" xml:space="preserve">
<style type="text/css">
	.st0{fill:#CCCCCC;}
</style>
<path class="st0" d="M62,4.7H10.5v70.7h58.9V15.8L62,4.7z M17,42.5c0-3.4,1.3-6.4,3.4-8.7l9.4,8.9c0,0-8.5,0.5-12.8,0.9
	C17,43.1,17,42.8,17,42.5z M39,63.4c-9.4,0-17.1-7.2-17.8-16.4c6-0.4,17.8-1.2,17.8-1.2L25.9,33.4c3.3-3.5,7.9-5.7,13.1-5.7
	c9.9,0,17.8,8,17.8,17.8S48.9,63.4,39,63.4z M61.6,28.2h-44l0,0H61.6L61.6,28.2z M57.7,24.3H14.5v-3.9h43.2V24.3z"/>
</svg>
