<?xml version="1.0" encoding="utf-8"?>
<!-- Generator: Adobe Illustrator 25.1.0, SVG Export Plug-In . SVG Version: 6.00 Build 0)  -->
<svg version="1.1" id="Capa_1" xmlns="http://www.w3.org/2000/svg" xmlns:xlink="http://www.w3.org/1999/xlink" x="0px" y="0px"
	 viewBox="0 0 17 17" style="enable-background:new 0 0 17 17;" xml:space="preserve">
<style type="text/css">
	.st0{fill:#CCCCCC;}
</style>
<path class="st0" d="M16.3,14.1l-2.8-2.8c0.7-1.1,1.1-2.4,1.1-3.8c0-3.9-3.1-7-7-7s-7,3.1-7,7s3.1,7,7,7c1.4,0,2.7-0.4,3.8-1.1
	l2.8,2.8c0.2,0.2,0.5,0.2,0.7,0l1.4-1.4C16.4,14.6,16.4,14.3,16.3,14.1z M7.6,12.6c-2.8,0-5-2.2-5-5s2.2-5,5-5s5,2.2,5,5
	S10.4,12.6,7.6,12.6z"/>
</svg>
